<svg xmlns="http://www.w3.org/2000/svg" width="428" height="926.001" viewBox="0 0 428 926.001">
  <rect id="Rectangle_15" data-name="Rectangle 15" width="428" height="926" transform="translate(0 0)" fill="#fff"/>
  <path id="Subtraction_15" data-name="Subtraction 15" d="M277.375,522H-67.374A180.119,180.119,0,0,1-75,470a181.328,181.328,0,0,1,3.657-36.276A179.012,179.012,0,0,1-44.259,369.36a180.526,180.526,0,0,1,79.195-65.215,179.1,179.1,0,0,1,33.788-10.488,181.757,181.757,0,0,1,72.553,0,179.012,179.012,0,0,1,64.363,27.084,180.526,180.526,0,0,1,65.215,79.195,179.1,179.1,0,0,1,10.488,33.788A181.329,181.329,0,0,1,285,470a180.119,180.119,0,0,1-7.625,52Z" transform="translate(109 404)" fill="rgba(237,237,237,0.4)"/>
  <path id="Subtraction_16" data-name="Subtraction 16" d="M268.4,487H-2.4A144.411,144.411,0,0,1-12,435a146.071,146.071,0,0,1,2.946-29.223,144.2,144.2,0,0,1,21.818-51.848,145.423,145.423,0,0,1,63.8-52.534,144.274,144.274,0,0,1,27.218-8.449,146.413,146.413,0,0,1,58.445,0,144.207,144.207,0,0,1,51.848,21.818,145.424,145.424,0,0,1,52.534,63.8,144.272,144.272,0,0,1,8.449,27.218A146.072,146.072,0,0,1,278,435a144.412,144.412,0,0,1-9.6,52Z" transform="translate(81 439)" fill="#fff"/>
  <path id="Subtraction_18" data-name="Subtraction 18" d="M228.138,447H31.861a106.561,106.561,0,0,1-3.217-90.969,107.55,107.55,0,0,1,10.142-18.365,109.678,109.678,0,0,1,29.712-29.2A110.425,110.425,0,0,1,107.831,292.2a112.973,112.973,0,0,1,44.338,0,110.344,110.344,0,0,1,55.613,29.469,109.317,109.317,0,0,1,13.432,16,107.55,107.55,0,0,1,10.142,18.365A106.51,106.51,0,0,1,228.138,447h0Z" transform="translate(84 479)" fill="rgba(237,237,237,0.4)"/>
  <path id="Subtraction_12" data-name="Subtraction 12" d="M71,527h0V207H391c0,81.27-32.973,158.809-92.843,218.335a343.177,343.177,0,0,1-47.207,39.133,355.421,355.421,0,0,1-54.4,30.728,364.834,364.834,0,0,1-60.386,21.215A374.256,374.256,0,0,1,71,527Z" transform="translate(-71 -207)" fill="rgba(237,237,237,0.4)"/>
  <path id="Subtraction_10" data-name="Subtraction 10" d="M71,487h0V207H351c0,71.111-28.852,138.957-81.237,191.043a300.282,300.282,0,0,1-41.306,34.241,310.993,310.993,0,0,1-47.6,26.887,319.233,319.233,0,0,1-52.838,18.563A327.481,327.481,0,0,1,71,487Z" transform="translate(-71 -207)" fill="#fff"/>
  <path id="Subtraction_8" data-name="Subtraction 8" d="M71,427h0V207H291c0,55.873-22.669,109.181-63.829,150.105a235.933,235.933,0,0,1-32.455,26.9,244.347,244.347,0,0,1-37.4,21.126A250.828,250.828,0,0,1,115.8,419.72,257.3,257.3,0,0,1,71,427Z" transform="translate(-71 -207)" fill="rgba(237,237,237,0.4)"/>
  <g id="Rectangle_4" data-name="Rectangle 4" transform="translate(295 198)" fill="#fff" stroke="#707070" stroke-width="1">
    <rect width="3" height="5" stroke="none"/>
    <rect x="0.5" y="0.5" width="2" height="4" fill="none"/>
  </g>
  <path id="Subtraction_4" data-name="Subtraction 4" d="M71,387h0V207H251c0,45.714-18.548,89.33-52.224,122.814a193.039,193.039,0,0,1-26.554,22.012,199.926,199.926,0,0,1-30.6,17.285,205.224,205.224,0,0,1-33.967,11.933A210.527,210.527,0,0,1,71,387Z" transform="translate(-71 -207)" fill="#fff"/>
  <path id="Subtraction_14" data-name="Subtraction 14" d="M71,327h0V207H191c0,30.476-12.365,59.553-34.816,81.876a128.693,128.693,0,0,1-17.7,14.675,133.281,133.281,0,0,1-20.4,11.523,136.816,136.816,0,0,1-22.645,7.956A140.351,140.351,0,0,1,71,327Z" transform="translate(-71 -207)" fill="rgba(237,237,237,0.4)"/>
  <path id="Subtraction_2" data-name="Subtraction 2" d="M71,287h0V207h80c0,20.318-8.243,39.7-23.211,54.584a85.8,85.8,0,0,1-11.8,9.783,88.857,88.857,0,0,1-13.6,7.682,91.211,91.211,0,0,1-15.1,5.3A93.564,93.564,0,0,1,71,287Z" transform="translate(-71 -207)" fill="#fff"/>
  <path id="Subtraction_17" data-name="Subtraction 17" d="M181,412H67a73.069,73.069,0,0,1-5.194-89.4,75.126,75.126,0,0,1,47.076-31.1,76.8,76.8,0,0,1,30.23,0,75.039,75.039,0,0,1,47.076,31.1,73.625,73.625,0,0,1,6.915,12.56A73.113,73.113,0,0,1,181,412Z" transform="translate(90 514)" fill="#fff"/>
</svg>
