<svg xmlns="http://www.w3.org/2000/svg" width="505" height="505" viewBox="0 0 505 505">
  <rect id="Rectangle_34" data-name="Rectangle 34" width="505" height="505" transform="translate(0)" fill="#fff"/>
  <path id="Subtraction_35" data-name="Subtraction 35" d="M71.005,712h0V207H576c0,128.254-52.036,250.62-146.517,344.56a541.576,541.576,0,0,1-74.5,61.756,560.884,560.884,0,0,1-85.846,48.493,575.748,575.748,0,0,1-95.3,33.48A590.631,590.631,0,0,1,71.005,712Z" transform="translate(-71 -207)" fill="#f6f6f6"/>
  <path id="Subtraction_31" data-name="Subtraction 31" d="M71,657h0V207H521c0,114.286-46.369,223.325-130.56,307.034a482.6,482.6,0,0,1-66.385,55.031,499.806,499.806,0,0,1-76.5,43.212,513.05,513.05,0,0,1-84.918,29.833A526.32,526.32,0,0,1,71,657Z" transform="translate(-71 -207)" fill="#fff"/>
  <path id="Subtraction_29" data-name="Subtraction 29" d="M71,562h0V207H426c0,90.159-36.58,176.178-103,242.216a380.722,380.722,0,0,1-52.37,43.413,394.314,394.314,0,0,1-60.347,34.09,404.769,404.769,0,0,1-66.991,23.535A415.2,415.2,0,0,1,71,562Z" transform="translate(-71 -207)" fill="#f6f6f6"/>
  <path id="Subtraction_33" data-name="Subtraction 33" d="M71,507h0V207H371c0,76.191-30.913,148.883-87.04,204.689A321.73,321.73,0,0,1,239.7,448.376a333.208,333.208,0,0,1-51,28.808,342.037,342.037,0,0,1-56.612,19.889A350.878,350.878,0,0,1,71,507Z" transform="translate(-71 -207)" fill="#fff"/>
  <path id="Subtraction_39" data-name="Subtraction 39" d="M71,412h0V207H276c0,52.064-21.124,101.737-59.477,139.871a219.848,219.848,0,0,1-30.242,25.069,227.692,227.692,0,0,1-34.848,19.685,233.728,233.728,0,0,1-38.685,13.591A239.775,239.775,0,0,1,71,412Z" transform="translate(-71 -207)" fill="#f6f6f6"/>
  <path id="Subtraction_27" data-name="Subtraction 27" d="M71,357h0V207H221c0,38.1-15.456,74.442-43.52,102.345a160.865,160.865,0,0,1-22.128,18.344,166.6,166.6,0,0,1-25.5,14.4,171.019,171.019,0,0,1-28.306,9.944A175.439,175.439,0,0,1,71,357Z" transform="translate(-71 -207)" fill="#fff"/>
</svg>
