<svg xmlns="http://www.w3.org/2000/svg" width="355" height="241.785" viewBox="0 0 355 241.785">
  <path id="Subtraction_22" data-name="Subtraction 22" d="M290,531.785H-41a176.9,176.9,0,0,1-8.087-27.045,179.182,179.182,0,0,1-.307-73.011,176.545,176.545,0,0,1,26.708-63.47,178.021,178.021,0,0,1,78.094-64.309,176.65,176.65,0,0,1,33.319-10.343,179.241,179.241,0,0,1,71.546,0,176.533,176.533,0,0,1,63.469,26.708,178.015,178.015,0,0,1,64.309,78.1,176.641,176.641,0,0,1,10.342,33.319,179.2,179.2,0,0,1-.307,73.011A177,177,0,0,1,290,531.785Z" transform="translate(53 -290)" fill="#f6f6f6"/>
  <path id="Subtraction_23" data-name="Subtraction 23" d="M266.241,507H-2.24A149.282,149.282,0,0,1-18,440a151.137,151.137,0,0,1,3.047-30.23,149.206,149.206,0,0,1,22.57-53.636,150.435,150.435,0,0,1,66-54.346,149.229,149.229,0,0,1,28.157-8.741,151.466,151.466,0,0,1,60.46,0,149.188,149.188,0,0,1,53.636,22.57,150.444,150.444,0,0,1,54.347,66,149.256,149.256,0,0,1,8.74,28.157,151.156,151.156,0,0,1-3.125,72.952A149.353,149.353,0,0,1,266.241,507Z" transform="translate(45.5 -265.216)" fill="#fff"/>
  <path id="Subtraction_24" data-name="Subtraction 24" d="M205.8,454.932H43.2a102.571,102.571,0,1,1,162.6,0h0Z" transform="translate(53 -213.146)" fill="#f6f6f6"/>
  <path id="Subtraction_25" data-name="Subtraction 25" d="M165.74,432H98.259a75,75,0,1,1,67.481,0Z" transform="translate(45.5 -190.215)" fill="#fff"/>
</svg>
